<svg width="319" height="669" viewBox="0 0 319 669" fill="none" xmlns="http://www.w3.org/2000/svg">
<path d="M90.5 666.062L2.29999 666.062L2.29999 649.052L74.75 649.052L74.75 606.59L90.5 606.59L90.5 666.062ZM90.5 592.603L2.29999 592.603L2.29999 533.005L18.05 533.005L18.05 575.593L38.21 575.593L38.21 537.037L53.582 537.037L53.582 575.593L74.75 575.593L74.75 532.501L90.5 532.501L90.5 592.603ZM90.5 524.958L2.29999 491.82L2.29999 470.274L90.5 437.262L90.5 455.784L72.734 462.084L72.734 500.01L90.5 506.31L90.5 524.958ZM19.436 481.11L57.11 494.466L57.11 467.628L19.436 481.11ZM90.5 427.966L2.29998 427.966L2.29998 394.954C2.29998 382.522 5.70198 372.988 12.506 366.352C19.31 359.716 28.76 356.398 40.856 356.398L51.944 356.398C64.124 356.398 73.616 359.716 80.42 366.352C87.14 372.988 90.5 382.522 90.5 394.954L90.5 427.966ZM74.75 410.956L74.75 395.584C74.75 388.864 72.818 383.488 68.954 379.456C65.09 375.424 58.958 373.408 50.558 373.408L42.242 373.408C33.842 373.408 27.71 375.424 23.846 379.456C19.982 383.488 18.05 388.864 18.05 395.584L18.05 410.956L74.75 410.956ZM90.5 342.695L2.29998 342.695L2.29998 283.097L18.05 283.097L18.05 325.685L38.21 325.685L38.21 287.129L53.582 287.129L53.582 325.685L74.75 325.685L74.75 282.593L90.5 282.593L90.5 342.695ZM90.5 268.498L2.29998 268.498L2.29997 231.58C2.29997 221.836 4.48398 214.318 8.85198 209.026C13.136 203.65 19.142 200.962 26.87 200.962L29.138 200.962C32.918 200.962 36.236 201.718 39.092 203.23C41.864 204.742 44.132 206.758 45.896 209.278C47.66 211.714 48.878 214.36 49.55 217.216C50.39 212.26 52.364 208.48 55.472 205.876C58.496 203.188 62.864 201.844 68.576 201.844L90.5 201.844L90.5 218.854L71.348 218.854C66.644 218.854 63.158 219.988 60.89 222.256C58.622 224.44 57.488 227.968 57.488 232.84L57.488 251.488L90.5 251.488L90.5 268.498ZM42.242 251.488L42.242 231.202C42.242 227.086 41.276 223.936 39.344 221.752C37.412 219.484 34.598 218.35 30.902 218.35L29.39 218.35C25.694 218.35 22.88 219.484 20.948 221.752C19.016 223.936 18.05 227.086 18.05 231.202L18.05 251.488L42.242 251.488ZM92.012 154.412C92.012 164.912 89.45 173.06 84.326 178.856C79.202 184.652 72.524 188.432 64.292 190.196L58.748 173.438C64.628 172.346 69.08 170.288 72.104 167.264C75.128 164.156 76.64 159.662 76.64 153.782L76.64 150.632C76.64 145.928 75.632 142.274 73.616 139.67C71.6 136.982 68.66 135.638 64.796 135.638C61.184 135.638 58.454 137.024 56.606 139.796C54.674 142.484 53.288 146.726 52.448 152.522L51.062 162.224C50.474 166.088 49.298 169.91 47.534 173.69C45.686 177.47 42.998 180.62 39.47 183.14C35.942 185.576 31.406 186.794 25.862 186.794C20.822 186.794 16.454 185.492 12.758 182.888C8.97797 180.2 6.03797 176.462 3.93797 171.674C1.83798 166.886 0.787976 161.258 0.787976 154.79L0.787976 152.522C0.787975 145.97 1.66997 140.594 3.43397 136.394C5.11397 132.11 7.50798 128.666 10.616 126.062C13.64 123.458 17.21 121.358 21.326 119.762L28.13 134.252C23.93 135.848 20.738 138.158 18.554 141.182C16.37 144.122 15.278 148.07 15.278 153.026L15.278 155.168C15.278 159.536 16.202 163.106 18.05 165.878C19.814 168.566 22.292 169.91 25.484 169.91C28.928 169.91 31.49 168.566 33.17 165.878C34.766 163.106 35.9 159.284 36.572 154.412L37.958 144.71C38.63 139.502 40.016 134.924 42.116 130.976C44.132 126.944 46.946 123.794 50.558 121.526C54.086 119.174 58.58 117.998 64.04 117.998C69.92 117.998 74.96 119.342 79.16 122.03C83.276 124.718 86.468 128.498 88.736 133.37C90.92 138.242 92.012 143.912 92.012 150.38L92.012 154.412ZM90.5 83.5354L75.506 83.5354L75.506 68.1634L17.294 68.1635L17.294 83.5355L2.29997 83.5355L2.29997 35.7814L17.294 35.7814L17.294 51.1535L75.506 51.1534L75.506 35.7814L90.5 35.7814L90.5 83.5354ZM90.5 24.2495L2.29997 24.2495L2.29996 2.4515L60.134 -33.2065L2.29996 -33.2065L2.29996 -49.8385L90.5 -49.8385L90.5 -33.3325L24.098 7.6175L90.5 7.61749L90.5 24.2495ZM205.012 631.538C205.012 638.51 203.416 644.768 200.224 650.312C197.032 655.856 192.37 660.224 186.238 663.416C180.022 666.608 172.504 668.204 163.684 668.204L155.116 668.204C147.64 668.204 140.794 666.776 134.578 663.92C128.278 660.98 123.238 656.654 119.458 650.942C115.678 645.146 113.788 637.964 113.788 629.396C113.788 622.004 114.922 615.83 117.19 610.874C119.374 605.918 122.398 602.012 126.262 599.156C130.126 596.3 134.536 594.326 139.492 593.234L145.414 608.606C140.458 609.95 136.594 612.302 133.822 615.662C130.966 618.938 129.538 623.558 129.538 629.522C129.538 636.662 131.974 642.08 136.846 645.776C141.718 649.388 147.892 651.194 155.368 651.194L163.432 651.194C171.496 651.194 177.838 649.346 182.458 645.65C186.994 641.954 189.262 636.326 189.262 628.766C189.262 624.062 188.338 620.198 186.49 617.174C184.642 614.15 182.374 611.924 179.686 610.496C176.998 608.984 174.436 608.228 172 608.228L171.496 608.228L171.496 633.554L157.888 633.554L157.888 591.974L203.5 591.974L203.5 607.724L191.404 607.724C195.688 609.824 199.048 612.806 201.484 616.67C203.836 620.45 205.012 625.406 205.012 631.538ZM203.5 576.607L115.3 576.607L115.3 559.597L187.75 559.597L187.75 517.135L203.5 517.135L203.5 576.607ZM205.012 473.373C205.012 481.101 203.416 487.905 200.224 493.785C196.948 499.581 192.286 504.117 186.238 507.393C180.106 510.585 172.84 512.181 164.44 512.181L154.234 512.181C145.834 512.181 138.61 510.585 132.562 507.393C126.514 504.117 121.894 499.581 118.702 493.785C115.426 487.905 113.788 481.101 113.788 473.373C113.788 465.645 115.426 458.883 118.702 453.087C121.894 447.291 126.514 442.797 132.562 439.605C138.61 436.329 145.834 434.691 154.234 434.691L164.44 434.691C172.84 434.691 180.106 436.329 186.238 439.605C192.286 442.797 196.948 447.291 200.224 453.087C203.416 458.883 205.012 465.645 205.012 473.373ZM189.136 473.373C189.136 466.821 186.952 461.571 182.584 457.623C178.216 453.591 171.916 451.575 163.684 451.575L155.116 451.575C146.884 451.575 140.584 453.591 136.216 457.623C131.848 461.571 129.664 466.821 129.664 473.373C129.664 480.009 131.848 485.301 136.216 489.249C140.584 493.197 146.884 495.171 155.116 495.171L163.684 495.171C171.916 495.171 178.216 493.197 182.584 489.249C186.952 485.301 189.136 480.009 189.136 473.373ZM203.5 420.953L115.3 420.953L115.3 385.547C115.3 376.643 117.316 369.881 121.348 365.261C125.38 360.641 130.882 358.331 137.854 358.331L138.862 358.331C143.314 358.331 146.926 359.339 149.698 361.355C152.386 363.371 154.612 365.849 156.376 368.789C157.72 364.589 160.114 360.977 163.558 357.953C166.918 354.929 171.496 353.417 177.292 353.417L178.426 353.417C186.07 353.417 192.16 355.979 196.696 361.103C201.232 366.143 203.5 373.031 203.5 381.767L203.5 420.953ZM151.084 403.943L151.084 385.547C151.084 382.019 150.244 379.289 148.564 377.357C146.8 375.341 144.448 374.333 141.508 374.333L140.248 374.333C137.308 374.333 134.998 375.341 133.318 377.357C131.554 379.289 130.672 382.019 130.672 385.547L130.672 403.943L151.084 403.943ZM187.75 403.943L187.75 382.523C187.75 378.323 186.826 375.173 184.978 373.073C183.046 370.889 180.4 369.797 177.04 369.797L175.906 369.797C172.462 369.797 169.816 370.847 167.968 372.947C166.036 375.047 165.07 378.197 165.07 382.397L165.07 403.943L187.75 403.943ZM203.5 350.354L115.3 317.216L115.3 295.67L203.5 262.658L203.5 281.18L185.734 287.48L185.734 325.406L203.5 331.706L203.5 350.354ZM132.436 306.506L170.11 319.862L170.11 293.024L132.436 306.506ZM203.5 253.363L115.3 253.363L115.3 236.353L187.75 236.353L187.75 193.891L203.5 193.891L203.5 253.363ZM316.5 666.062L228.3 666.062L228.3 606.464L244.05 606.464L244.05 649.052L264.21 649.052L264.21 610.496L279.582 610.496L279.582 649.052L300.75 649.052L300.75 605.96L316.5 605.96L316.5 666.062ZM316.5 591.865L228.3 591.865L228.3 558.853C228.3 546.421 231.702 536.887 238.506 530.251C245.31 523.615 254.76 520.297 266.856 520.297L277.944 520.297C290.124 520.297 299.616 523.615 306.42 530.251C313.14 536.887 316.5 546.421 316.5 558.853L316.5 591.865ZM300.75 574.855L300.75 559.483C300.75 552.763 298.818 547.387 294.954 543.355C291.09 539.323 284.958 537.307 276.558 537.307L268.242 537.307C259.842 537.307 253.71 539.323 249.846 543.355C245.982 547.387 244.05 552.763 244.05 559.483L244.05 574.855L300.75 574.855ZM316.5 474.337C316.5 485.929 313.476 494.245 307.428 499.285C301.38 504.241 292.938 506.719 282.102 506.719L228.3 506.719L228.3 489.709L283.236 489.709C289.2 489.709 293.61 488.239 296.466 485.299C299.322 482.359 300.75 478.411 300.75 473.455L300.75 467.785C300.75 462.745 299.322 458.755 296.466 455.815C293.61 452.875 289.2 451.405 283.236 451.405L228.3 451.405L228.3 434.521L282.102 434.521C292.938 434.521 301.38 437.041 307.428 442.081C313.476 447.037 316.5 455.311 316.5 466.903L316.5 474.337ZM318.012 382.324C318.012 390.388 316.374 397.318 313.098 403.114C309.738 408.826 304.95 413.236 298.734 416.344C292.518 419.368 285.168 420.88 276.684 420.88L267.99 420.88C259.758 420.88 252.576 419.326 246.444 416.218C240.228 413.026 235.398 408.532 231.954 402.736C228.51 396.856 226.788 389.926 226.788 381.946C226.788 371.194 229.308 362.878 234.348 356.998C239.304 351.034 245.772 347.002 253.752 344.902L259.296 360.526C254.256 361.87 250.224 364.306 247.2 367.834C244.176 371.278 242.664 375.982 242.664 381.946C242.664 388.75 244.974 394.126 249.594 398.074C254.13 401.938 260.346 403.87 268.242 403.87L276.432 403.87C284.58 403.87 290.922 401.938 295.458 398.074C299.91 394.126 302.136 388.876 302.136 382.324C302.136 376.36 300.666 371.614 297.726 368.086C294.786 364.474 290.292 361.87 284.244 360.274L289.788 344.398C298.608 346.666 305.538 350.866 310.578 356.998C315.534 363.13 318.012 371.572 318.012 382.324ZM316.5 341.741L228.3 308.603L228.3 287.057L316.5 254.045L316.5 272.567L298.734 278.867L298.734 316.793L316.5 323.093L316.5 341.741ZM245.436 297.893L283.11 311.249L283.11 284.411L245.436 297.893ZM316.5 236.343L244.05 236.343L244.05 264.567L228.3 264.567L228.3 191.235L244.05 191.235L244.05 219.459L316.5 219.459L316.5 236.343ZM316.5 183.573L301.506 183.573L301.506 168.201L243.294 168.201L243.294 183.573L228.3 183.573L228.3 135.819L243.294 135.819L243.294 151.191L301.506 151.191L301.506 135.819L316.5 135.819L316.5 183.573ZM318.012 89.0972C318.012 96.8252 316.416 103.629 313.224 109.509C309.948 115.305 305.286 119.841 299.238 123.117C293.106 126.309 285.84 127.905 277.44 127.905L267.234 127.905C258.834 127.905 251.61 126.309 245.562 123.117C239.514 119.841 234.894 115.305 231.702 109.509C228.426 103.629 226.788 96.8252 226.788 89.0972C226.788 81.3692 228.426 74.6072 231.702 68.8112C234.894 63.0152 239.514 58.5212 245.562 55.3292C251.61 52.0532 258.834 50.4152 267.234 50.4152L277.44 50.4152C285.84 50.4152 293.106 52.0532 299.238 55.3292C305.286 58.5212 309.948 63.0152 313.224 68.8112C316.416 74.6072 318.012 81.3692 318.012 89.0972ZM302.136 89.0972C302.136 82.5452 299.952 77.2952 295.584 73.3472C291.216 69.3152 284.916 67.2992 276.684 67.2992L268.116 67.2992C259.884 67.2992 253.584 69.3152 249.216 73.3472C244.848 77.2952 242.664 82.5452 242.664 89.0972C242.664 95.7332 244.848 101.025 249.216 104.973C253.584 108.921 259.884 110.895 268.116 110.895L276.684 110.895C284.916 110.895 291.216 108.921 295.584 104.973C299.952 101.025 302.136 95.7332 302.136 89.0972ZM316.5 36.6772L228.3 36.6772L228.3 14.8792L286.134 -20.7788L228.3 -20.7788L228.3 -37.4108L316.5 -37.4108L316.5 -20.9048L250.098 20.0452L316.5 20.0452L316.5 36.6772Z" fill="black" fill-opacity="0.1"/>
</svg>
