<svg width="2132" height="26" viewBox="0 0 2132 26" fill="none" xmlns="http://www.w3.org/2000/svg">
<path d="M0.0160001 25L0.0160001 4.84H2.5504L2.5504 13.3648L12.7456 13.3648L12.7456 4.84L15.28 4.84L15.28 25H12.7456L12.7456 15.7264L2.5504 15.7264L2.5504 25H0.0160001ZM26.2794 25C23.9754 25 22.2186 24.3664 21.0666 23.0992C19.8858 21.832 19.3098 19.96 19.3098 17.512L19.3098 4.84H21.8442L21.8442 17.8864C21.8442 19.5568 22.2474 20.7664 23.1114 21.5152C23.9466 22.264 25.041 22.6384 26.4234 22.6384H27.633C29.0154 22.6384 30.1098 22.264 30.945 21.5152C31.7802 20.7664 32.2122 19.5568 32.2122 17.8864V4.84H34.7466V17.512C34.7466 19.96 34.1418 21.832 32.9898 23.0992C31.809 24.3664 30.081 25 27.777 25H26.2794ZM38.7723 25L38.7723 4.84H42.8043L48.7371 22.5232L54.6699 4.84H58.7019L58.7019 25H56.2251L56.2251 7.6048L50.1771 25H47.2971L41.2491 7.6048L41.2491 25H38.7723ZM61.3524 25L68.9556 4.84L72.2964 4.84L79.8996 25H77.1348L75.378 20.1616L65.874 20.1616L64.1172 25H61.3524ZM70.626 7.0576L66.7092 17.8576H74.5428L70.626 7.0576ZM82.5629 25V4.84H85.0397C86.0765 4.84 86.9693 5.0416 87.6893 5.4448C88.4093 5.848 88.9853 6.3952 89.4461 7.0864C89.9069 7.7776 90.2525 8.5552 90.5405 9.448C90.8285 10.3408 91.0589 11.2624 91.2317 12.2416L92.0669 17.0512C92.2397 18.0592 92.4413 18.9808 92.7005 19.8448C92.9597 20.7088 93.3341 21.3712 93.7949 21.8896C94.2557 22.408 94.8893 22.6384 95.6957 22.6384H95.9261V4.84H98.4029V25L95.9261 25C94.5437 25 93.4205 24.6832 92.6141 24.0496C91.8077 23.416 91.1741 22.5808 90.7709 21.544C90.3389 20.5072 90.0221 19.4128 89.8205 18.2032L88.8701 12.8752C88.5533 11.1472 88.1213 9.7936 87.6029 8.7568C87.0557 7.72 86.2781 7.2016 85.2701 7.2016H85.0397V25H82.5629ZM101.814 25V22.6384H105.788V7.2016L101.814 7.2016V4.84L112.297 4.84V7.2016H108.322V22.6384H112.297V25H101.814ZM121.512 25V7.2016H114.715V4.84L130.843 4.84V7.2016L124.046 7.2016V25H121.512ZM128.487 25L136.09 4.84H139.431L147.034 25H144.269L142.512 20.1616L133.008 20.1616L131.252 25H128.487ZM137.76 7.0576L133.844 17.8576L141.677 17.8576L137.76 7.0576ZM149.697 25V4.84H157.502C158.798 4.84 159.95 5.0416 160.987 5.4448C161.995 5.848 162.801 6.4816 163.377 7.288C163.953 8.0944 164.27 9.16 164.27 10.4272V10.7728C164.27 11.752 164.068 12.5872 163.694 13.2496C163.291 13.912 162.83 14.4304 162.254 14.8048C161.678 15.208 161.102 15.4384 160.526 15.5536C161.592 15.6976 162.427 16.1296 163.003 16.8496C163.579 17.5696 163.896 18.5776 163.896 19.8736V25L161.361 25V20.3632C161.361 19.2112 161.044 18.3472 160.468 17.7136C159.892 17.08 159.028 16.7632 157.876 16.7632H152.232V25H149.697ZM152.232 14.4016H157.646C158.913 14.4016 159.921 14.1424 160.641 13.5664C161.361 13.0192 161.736 12.1552 161.736 10.9456V10.6576C161.736 9.448 161.361 8.584 160.641 8.0368C159.921 7.4896 158.913 7.2016 157.646 7.2016H152.232V14.4016ZM167.176 25V22.6384H171.151V7.2016L167.176 7.2016V4.84L177.659 4.84V7.2016H173.685V22.6384H177.659V25H167.176ZM181.057 25V4.84L193.757 4.84V7.2016L183.591 7.2016V13.6528L192.893 13.6528V16.0144L183.591 16.0144V22.6384L194.103 22.6384V25L181.057 25ZM203.945 25.3456C202.332 25.3456 200.979 25.0576 199.884 24.4816C198.79 23.9056 197.955 23.0992 197.35 22.0912C196.716 21.112 196.313 19.96 196.14 18.6928L198.559 17.944C198.79 19.528 199.308 20.7664 200.172 21.6592C201.036 22.552 202.303 22.984 203.974 22.984H204.953C206.278 22.984 207.343 22.6672 208.121 22.0048C208.899 21.3712 209.302 20.4784 209.302 19.3552C209.302 18.2896 208.899 17.4832 208.092 16.9072C207.286 16.3312 206.105 15.9568 204.55 15.7552L202.937 15.5536C201.958 15.4384 201.007 15.1792 200.115 14.776C199.193 14.3728 198.473 13.7968 197.897 13.0192C197.321 12.2704 197.033 11.2624 197.033 10.024C197.033 8.9296 197.321 7.9792 197.897 7.144C198.473 6.3376 199.251 5.6752 200.259 5.2144C201.238 4.7536 202.39 4.4944 203.657 4.4944H204.348C205.731 4.4944 206.883 4.7248 207.833 5.128C208.755 5.56 209.532 6.136 210.108 6.8272C210.684 7.5184 211.145 8.296 211.433 9.16L209.215 10.2544C208.87 9.2176 208.265 8.3824 207.459 7.7488C206.652 7.1152 205.587 6.7984 204.291 6.7984H203.657C202.447 6.7984 201.468 7.0864 200.691 7.6624C199.884 8.2384 199.51 9.016 199.51 9.9664C199.51 11.032 199.884 11.8096 200.662 12.2704C201.411 12.7312 202.476 13.0768 203.801 13.2496L205.443 13.48C206.71 13.6528 207.833 13.9696 208.812 14.4304C209.763 14.8912 210.511 15.496 211.03 16.2736C211.548 17.08 211.836 18.088 211.836 19.2976C211.836 20.6224 211.519 21.7456 210.886 22.6384C210.252 23.56 209.388 24.2224 208.351 24.6832C207.315 25.144 206.163 25.3456 204.924 25.3456H203.945ZM225.448 19.24C224.642 19.24 223.922 19.0672 223.259 18.664C222.597 18.2896 222.078 17.7712 221.704 17.1088C221.301 16.4464 221.128 15.7264 221.128 14.92C221.128 14.1136 221.301 13.3936 221.704 12.7312C222.078 12.0976 222.597 11.5792 223.259 11.176C223.922 10.8016 224.642 10.6 225.448 10.6C226.254 10.6 226.974 10.8016 227.637 11.176C228.27 11.5792 228.789 12.0976 229.192 12.7312C229.566 13.3936 229.768 14.1136 229.768 14.92C229.768 15.7264 229.566 16.4464 229.192 17.1088C228.789 17.7712 228.27 18.2896 227.637 18.664C226.974 19.0672 226.254 19.24 225.448 19.24ZM247.645 25.3456C244.881 25.3456 242.749 24.5104 241.252 22.8112C239.754 21.112 239.034 18.7792 239.034 15.8128V13.9696C239.034 12.1552 239.38 10.5424 240.071 9.1024C240.762 7.6912 241.741 6.568 243.037 5.7328C244.305 4.9264 245.86 4.4944 247.645 4.4944C249.345 4.4944 250.756 4.8112 251.85 5.3872C252.945 5.992 253.78 6.7696 254.413 7.7488C255.047 8.728 255.479 9.7648 255.738 10.8592L253.492 11.6656C253.319 10.7728 253.002 9.9664 252.541 9.2464C252.081 8.5264 251.476 7.9504 250.669 7.5184C249.863 7.0864 248.855 6.856 247.617 6.856C246.292 6.856 245.197 7.1728 244.305 7.7488C243.383 8.3248 242.721 9.1312 242.26 10.168C241.799 11.2048 241.569 12.3568 241.569 13.6816V16.1008C241.569 18.3184 242.087 20.0176 243.153 21.1984C244.189 22.408 245.687 22.984 247.617 22.984C249.402 22.984 250.756 22.552 251.649 21.6592C252.513 20.7952 253.117 19.5856 253.463 18.0592L255.796 18.8656C255.335 20.824 254.413 22.408 253.089 23.5888C251.735 24.7696 249.921 25.3456 247.645 25.3456ZM266.177 25.3456C264.449 25.3456 262.951 24.9712 261.684 24.2224C260.417 23.4736 259.409 22.4368 258.718 21.0832C258.027 19.7296 257.681 18.1456 257.681 16.3312V13.48C257.681 11.6944 258.027 10.1104 258.718 8.7568C259.409 7.432 260.417 6.3664 261.684 5.6176C262.951 4.8688 264.449 4.4944 266.177 4.4944C267.876 4.4944 269.374 4.8688 270.641 5.6176C271.908 6.3664 272.916 7.432 273.607 8.7568C274.299 10.1104 274.673 11.6944 274.673 13.48V16.3312C274.673 18.1456 274.299 19.7296 273.607 21.0832C272.916 22.4368 271.908 23.4736 270.641 24.2224C269.374 24.9712 267.876 25.3456 266.177 25.3456ZM266.177 22.984C267.329 22.984 268.337 22.7536 269.23 22.264C270.123 21.7744 270.843 21.0256 271.361 20.0176C271.879 19.0096 272.139 17.7424 272.139 16.216V13.5952V13.5664V13.3648H268.942C267.617 13.3648 266.523 13.048 265.687 12.3568C264.852 11.6944 264.449 10.8304 264.449 9.7936C264.449 9.0448 264.622 8.44 264.996 7.9216C265.342 7.432 265.774 7.0864 266.292 6.856H266.177C265.025 6.856 264.017 7.1152 263.124 7.6048C262.203 8.0944 261.511 8.8432 260.993 9.8224C260.475 10.8304 260.215 12.0976 260.215 13.5952V16.216C260.215 17.7424 260.475 19.0096 260.993 20.0176C261.511 21.0256 262.203 21.7744 263.124 22.264C264.017 22.7536 265.025 22.984 266.177 22.984ZM268.999 11.0032H271.793C271.361 9.5056 270.555 8.3824 269.403 7.6624C268.942 7.432 268.481 7.3168 268.02 7.3744C267.559 7.432 267.185 7.6336 266.897 7.9504C266.609 8.296 266.465 8.6992 266.465 9.2176C266.465 9.7072 266.667 10.1392 267.099 10.4848C267.531 10.8304 268.164 11.0032 268.999 11.0032ZM278.004 25V4.84L282.036 4.84L287.968 22.5232L293.901 4.84H297.933V25L295.456 25V7.6048L289.408 25H286.528L280.48 7.6048V25H278.004ZM301.966 25V4.84H309.828C311.902 4.84 313.572 5.3296 314.84 6.28C316.107 7.2304 316.769 8.728 316.769 10.7728V11.1184C316.769 13.192 316.107 14.6896 314.84 15.64C313.572 16.5904 311.902 17.0512 309.828 17.0512H304.5V25H301.966ZM304.5 14.6896H310.001C311.355 14.6896 312.392 14.4304 313.14 13.8544C313.86 13.2784 314.235 12.3568 314.235 11.0896V10.8016C314.235 9.5632 313.86 8.6416 313.14 8.0656C312.392 7.4896 311.355 7.2016 310.001 7.2016H304.5V14.6896ZM326.964 25C324.66 25 322.903 24.3664 321.751 23.0992C320.57 21.832 319.994 19.96 319.994 17.512V4.84H322.529V17.8864C322.529 19.5568 322.932 20.7664 323.796 21.5152C324.631 22.264 325.725 22.6384 327.108 22.6384H328.317C329.7 22.6384 330.794 22.264 331.629 21.5152C332.465 20.7664 332.897 19.5568 332.897 17.8864V4.84L335.431 4.84V17.512C335.431 19.96 334.826 21.832 333.674 23.0992C332.493 24.3664 330.765 25 328.461 25H326.964ZM345.274 25V7.2016H338.477V4.84L354.605 4.84V7.2016H347.809V25H345.274ZM357.654 25V4.84L370.354 4.84V7.2016L360.188 7.2016V13.6528L369.49 13.6528V16.0144L360.188 16.0144V22.6384L370.7 22.6384V25L357.654 25ZM374.219 25V4.84L382.024 4.84C383.32 4.84 384.472 5.0416 385.509 5.4448C386.517 5.848 387.323 6.4816 387.899 7.288C388.475 8.0944 388.792 9.16 388.792 10.4272V10.7728C388.792 11.752 388.59 12.5872 388.216 13.2496C387.813 13.912 387.352 14.4304 386.776 14.8048C386.2 15.208 385.624 15.4384 385.048 15.5536C386.114 15.6976 386.949 16.1296 387.525 16.8496C388.101 17.5696 388.418 18.5776 388.418 19.8736V25H385.883V20.3632C385.883 19.2112 385.566 18.3472 384.99 17.7136C384.414 17.08 383.55 16.7632 382.398 16.7632H376.754V25H374.219ZM376.754 14.4016H382.168C383.435 14.4016 384.443 14.1424 385.163 13.5664C385.883 13.0192 386.258 12.1552 386.258 10.9456V10.6576C386.258 9.448 385.883 8.584 385.163 8.0368C384.443 7.4896 383.435 7.2016 382.168 7.2016L376.754 7.2016V14.4016ZM405.517 25.3456C403.904 25.3456 402.55 25.0576 401.456 24.4816C400.362 23.9056 399.526 23.0992 398.922 22.0912C398.288 21.112 397.885 19.96 397.712 18.6928L400.131 17.944C400.362 19.528 400.88 20.7664 401.744 21.6592C402.608 22.552 403.875 22.984 405.546 22.984H406.525C407.85 22.984 408.915 22.6672 409.693 22.0048C410.47 21.3712 410.874 20.4784 410.874 19.3552C410.874 18.2896 410.47 17.4832 409.664 16.9072C408.858 16.3312 407.677 15.9568 406.122 15.7552L404.509 15.5536C403.53 15.4384 402.579 15.1792 401.686 14.776C400.765 14.3728 400.045 13.7968 399.469 13.0192C398.893 12.2704 398.605 11.2624 398.605 10.024C398.605 8.9296 398.893 7.9792 399.469 7.144C400.045 6.3376 400.822 5.6752 401.83 5.2144C402.81 4.7536 403.962 4.4944 405.229 4.4944H405.92C407.302 4.4944 408.454 4.7248 409.405 5.128C410.326 5.56 411.104 6.136 411.68 6.8272C412.256 7.5184 412.717 8.296 413.005 9.16L410.787 10.2544C410.442 9.2176 409.837 8.3824 409.03 7.7488C408.224 7.1152 407.158 6.7984 405.862 6.7984H405.229C404.019 6.7984 403.04 7.0864 402.262 7.6624C401.456 8.2384 401.082 9.016 401.082 9.9664C401.082 11.032 401.456 11.8096 402.234 12.2704C402.982 12.7312 404.048 13.0768 405.373 13.2496L407.014 13.48C408.282 13.6528 409.405 13.9696 410.384 14.4304C411.334 14.8912 412.083 15.496 412.602 16.2736C413.12 17.08 413.408 18.088 413.408 19.2976C413.408 20.6224 413.091 21.7456 412.458 22.6384C411.824 23.56 410.96 24.2224 409.923 24.6832C408.886 25.144 407.734 25.3456 406.496 25.3456H405.517ZM424.692 25.3456C421.927 25.3456 419.796 24.5104 418.299 22.8112C416.801 21.112 416.081 18.7792 416.081 15.8128V13.9696C416.081 12.1552 416.427 10.5424 417.118 9.1024C417.809 7.6912 418.788 6.568 420.084 5.7328C421.351 4.9264 422.907 4.4944 424.692 4.4944C426.391 4.4944 427.803 4.8112 428.897 5.3872C429.991 5.992 430.827 6.7696 431.46 7.7488C432.094 8.728 432.526 9.7648 432.785 10.8592L430.539 11.6656C430.366 10.7728 430.049 9.9664 429.588 9.2464C429.127 8.5264 428.523 7.9504 427.716 7.5184C426.91 7.0864 425.902 6.856 424.663 6.856C423.339 6.856 422.244 7.1728 421.351 7.7488C420.43 8.3248 419.767 9.1312 419.307 10.168C418.846 11.2048 418.615 12.3568 418.615 13.6816V16.1008C418.615 18.3184 419.134 20.0176 420.199 21.1984C421.236 22.408 422.734 22.984 424.663 22.984C426.449 22.984 427.803 22.552 428.695 21.6592C429.559 20.7952 430.164 19.5856 430.51 18.0592L432.843 18.8656C432.382 20.824 431.46 22.408 430.135 23.5888C428.782 24.7696 426.967 25.3456 424.692 25.3456ZM435.095 25V22.6384H439.069V7.2016H435.095V4.84L445.578 4.84V7.2016L441.604 7.2016V22.6384H445.578V25H435.095ZM448.975 25V4.84L461.676 4.84V7.2016L451.51 7.2016V13.6528H460.812V16.0144H451.51V22.6384H462.022V25L448.975 25ZM465.541 25V4.84L468.018 4.84C469.055 4.84 469.947 5.0416 470.667 5.4448C471.387 5.848 471.963 6.3952 472.424 7.0864C472.885 7.7776 473.231 8.5552 473.519 9.448C473.807 10.3408 474.037 11.2624 474.21 12.2416L475.045 17.0512C475.218 18.0592 475.419 18.9808 475.679 19.8448C475.938 20.7088 476.312 21.3712 476.773 21.8896C477.234 22.408 477.867 22.6384 478.674 22.6384H478.904V4.84H481.381V25H478.904C477.522 25 476.399 24.6832 475.592 24.0496C474.786 23.416 474.152 22.5808 473.749 21.544C473.317 20.5072 473 19.4128 472.799 18.2032L471.848 12.8752C471.531 11.1472 471.099 9.7936 470.581 8.7568C470.034 7.72 469.256 7.2016 468.248 7.2016H468.018V25H465.541ZM493.345 25.3456C490.581 25.3456 488.449 24.5104 486.952 22.8112C485.454 21.112 484.734 18.7792 484.734 15.8128V13.9696C484.734 12.1552 485.08 10.5424 485.771 9.1024C486.462 7.6912 487.441 6.568 488.737 5.7328C490.005 4.9264 491.56 4.4944 493.345 4.4944C495.045 4.4944 496.456 4.8112 497.55 5.3872C498.645 5.992 499.48 6.7696 500.113 7.7488C500.747 8.728 501.179 9.7648 501.438 10.8592L499.192 11.6656C499.019 10.7728 498.702 9.9664 498.241 9.2464C497.781 8.5264 497.176 7.9504 496.369 7.5184C495.563 7.0864 494.555 6.856 493.317 6.856C491.992 6.856 490.897 7.1728 490.005 7.7488C489.083 8.3248 488.421 9.1312 487.96 10.168C487.499 11.2048 487.269 12.3568 487.269 13.6816V16.1008C487.269 18.3184 487.787 20.0176 488.853 21.1984C489.889 22.408 491.387 22.984 493.317 22.984C495.102 22.984 496.456 22.552 497.349 21.6592C498.213 20.7952 498.817 19.5856 499.163 18.0592L501.496 18.8656C501.035 20.824 500.113 22.408 498.789 23.5888C497.435 24.7696 495.621 25.3456 493.345 25.3456ZM504.719 25V4.84L517.42 4.84V7.2016L507.254 7.2016V13.6528H516.556V16.0144H507.254V22.6384L517.766 22.6384V25L504.719 25ZM527.5 25V4.84L540.201 4.84V7.2016L530.035 7.2016V13.6528L539.337 13.6528V16.0144L530.035 16.0144V22.6384L540.547 22.6384V25L527.5 25ZM544.066 25V4.84L547.493 4.84L557.429 20.7376V4.84H559.906V25H557.343L546.543 7.6624V25H544.066ZM571.784 25.3456C569.998 25.3456 568.443 24.9424 567.176 24.1072C565.909 23.3008 564.93 22.1488 564.267 20.7088C563.576 19.2688 563.259 17.6272 563.259 15.784V14.056C563.259 12.2128 563.605 10.5712 564.296 9.1312C564.987 7.6912 565.966 6.568 567.262 5.7328C568.558 4.9264 570.114 4.4944 571.957 4.4944C573.685 4.4944 575.067 4.8112 576.162 5.3872C577.256 5.9632 578.091 6.712 578.667 7.6336C579.243 8.5552 579.618 9.4768 579.819 10.4272L577.602 11.2624C577.429 10.4848 577.112 9.7648 576.68 9.1024C576.219 8.44 575.614 7.8928 574.866 7.4896C574.088 7.0864 573.08 6.856 571.87 6.856C569.883 6.856 568.386 7.5184 567.349 8.7856C566.312 10.0528 565.794 11.7232 565.794 13.768V16.072C565.794 18.1456 566.312 19.816 567.349 21.0832C568.386 22.3504 569.912 22.984 571.957 22.984C573.339 22.984 574.434 22.7248 575.298 22.1488C576.162 21.5728 576.795 20.8528 577.198 19.9888C577.602 19.1248 577.803 18.232 577.803 17.3392V16.9936H570.546V14.6896H580.222V25H577.861V21.6304C577.371 22.8112 576.651 23.7328 575.672 24.3664C574.693 25.0288 573.397 25.3456 571.784 25.3456ZM583.567 25V22.6384H587.541V7.2016H583.567V4.84L594.05 4.84V7.2016H590.076V22.6384H594.05V25H583.567ZM597.447 25V4.84L600.874 4.84L610.81 20.7376V4.84L613.287 4.84V25H610.724L599.924 7.6624V25H597.447ZM617.332 25V4.84L630.032 4.84V7.2016L619.866 7.2016V13.6528L629.168 13.6528V16.0144L619.866 16.0144V22.6384L630.378 22.6384V25L617.332 25ZM633.897 25V4.84L646.598 4.84V7.2016L636.432 7.2016V13.6528H645.734V16.0144H636.432V22.6384H646.944V25H633.897ZM650.463 4.84L657.836 4.84C659.333 4.84 660.601 5.128 661.637 5.6752C662.674 6.2224 663.481 6.9712 664.028 7.9504C664.575 8.9296 664.863 10.024 664.863 11.2912C664.863 12.2992 664.719 13.2784 664.431 14.2C664.143 15.1216 663.653 15.928 663.02 16.5904L665.381 25H662.789L660.889 17.944C660.226 18.1744 659.506 18.2608 658.757 18.2608C657.432 18.2608 656.396 17.9152 655.647 17.224C654.898 16.5328 654.553 15.64 654.553 14.5744C654.553 13.48 654.898 12.616 655.618 11.9824C656.338 11.3488 657.26 11.0032 658.354 11.0032C659.362 11.0032 660.169 11.2624 660.745 11.7232C661.321 12.2128 661.753 12.76 662.069 13.3936C662.242 12.7888 662.329 12.0976 662.329 11.2912C662.329 10.6288 662.156 9.9952 661.839 9.3616C661.522 8.728 661.033 8.2096 660.37 7.8064C659.708 7.4032 658.844 7.2016 657.778 7.2016L652.997 7.2016V25H650.463V4.84ZM656.914 14.5744C656.914 14.9776 657.058 15.3232 657.375 15.6112C657.663 15.8992 658.095 16.0144 658.642 16.0144C659.247 16.0144 659.794 15.928 660.255 15.6976L660.082 15.0064C659.938 14.5456 659.737 14.1136 659.506 13.768C659.247 13.4224 658.844 13.2496 658.325 13.2496C657.893 13.2496 657.548 13.3936 657.289 13.624C657.029 13.8832 656.914 14.2 656.914 14.5744ZM667.942 25V22.6384L671.916 22.6384V7.2016H667.942V4.84L678.425 4.84V7.2016L674.451 7.2016V22.6384H678.425V25L667.942 25ZM681.822 25V4.84H685.249L695.185 20.7376V4.84H697.662V25H695.099L684.299 7.6624V25H681.822ZM709.54 25.3456C707.755 25.3456 706.199 24.9424 704.932 24.1072C703.665 23.3008 702.686 22.1488 702.023 20.7088C701.332 19.2688 701.015 17.6272 701.015 15.784V14.056C701.015 12.2128 701.361 10.5712 702.052 9.1312C702.743 7.6912 703.723 6.568 705.019 5.7328C706.315 4.9264 707.87 4.4944 709.713 4.4944C711.441 4.4944 712.823 4.8112 713.918 5.3872C715.012 5.9632 715.847 6.712 716.423 7.6336C716.999 8.5552 717.374 9.4768 717.575 10.4272L715.358 11.2624C715.185 10.4848 714.868 9.7648 714.436 9.1024C713.975 8.44 713.371 7.8928 712.622 7.4896C711.844 7.0864 710.836 6.856 709.627 6.856C707.639 6.856 706.142 7.5184 705.105 8.7856C704.068 10.0528 703.55 11.7232 703.55 13.768V16.072C703.55 18.1456 704.068 19.816 705.105 21.0832C706.142 22.3504 707.668 22.984 709.713 22.984C711.095 22.984 712.19 22.7248 713.054 22.1488C713.918 21.5728 714.551 20.8528 714.955 19.9888C715.358 19.1248 715.559 18.232 715.559 17.3392V16.9936H708.302V14.6896L717.979 14.6896V25L715.617 25V21.6304C715.127 22.8112 714.407 23.7328 713.428 24.3664C712.449 25.0288 711.153 25.3456 709.54 25.3456ZM732.204 19.24C731.398 19.24 730.678 19.0672 730.016 18.664C729.353 18.2896 728.835 17.7712 728.46 17.1088C728.057 16.4464 727.884 15.7264 727.884 14.92C727.884 14.1136 728.057 13.3936 728.46 12.7312C728.835 12.0976 729.353 11.5792 730.016 11.176C730.678 10.8016 731.398 10.6 732.204 10.6C733.011 10.6 733.731 10.8016 734.393 11.176C735.027 11.5792 735.545 12.0976 735.948 12.7312C736.323 13.3936 736.524 14.1136 736.524 14.92C736.524 15.7264 736.323 16.4464 735.948 17.1088C735.545 17.7712 735.027 18.2896 734.393 18.664C733.731 19.0672 733.011 19.24 732.204 19.24ZM746.482 25V4.84H753.941C755.813 4.84 757.282 5.3296 758.318 6.2512C759.355 7.1728 759.902 8.44 759.902 10.024V10.2544C759.902 11.32 759.643 12.184 759.182 12.8464C758.693 13.5088 758.117 14.0272 757.426 14.4016C758.405 14.6896 759.269 15.208 759.96 16.0144C760.651 16.8208 760.997 17.944 760.997 19.384V19.6432C760.997 20.7376 760.709 21.688 760.19 22.4944C759.643 23.3008 758.923 23.9056 758.03 24.3376C757.138 24.7984 756.13 25 755.035 25H746.482ZM749.016 13.624H753.883C755.035 13.624 755.899 13.3648 756.533 12.8176C757.138 12.2992 757.454 11.5504 757.454 10.5712V10.2256C757.454 9.2752 757.138 8.5264 756.533 8.008C755.899 7.4896 755.035 7.2016 753.883 7.2016H749.016V13.624ZM749.016 22.6384H754.805C756.014 22.6384 756.965 22.3792 757.598 21.8032C758.232 21.256 758.578 20.4496 758.578 19.4128V19.1824C758.578 18.1744 758.261 17.368 757.627 16.792C756.994 16.216 756.072 15.928 754.834 15.928H749.016V22.6384ZM763.257 25V22.6384H767.232V7.2016L763.257 7.2016V4.84L773.741 4.84V7.2016H769.766V22.6384H773.741V25H763.257ZM784.493 25.3456C782.765 25.3456 781.267 24.9712 780 24.2224C778.733 23.4736 777.725 22.4368 777.034 21.0832C776.342 19.7296 775.997 18.1456 775.997 16.3312V13.48C775.997 11.6944 776.342 10.1104 777.034 8.7568C777.725 7.432 778.733 6.3664 780 5.6176C781.267 4.8688 782.765 4.4944 784.493 4.4944C786.192 4.4944 787.69 4.8688 788.957 5.6176C790.224 6.3664 791.232 7.432 791.923 8.7568C792.614 10.1104 792.989 11.6944 792.989 13.48V16.3312C792.989 18.1456 792.614 19.7296 791.923 21.0832C791.232 22.4368 790.224 23.4736 788.957 24.2224C787.69 24.9712 786.192 25.3456 784.493 25.3456ZM784.493 22.984C785.645 22.984 786.653 22.7536 787.546 22.264C788.438 21.7744 789.158 21.0256 789.677 20.0176C790.195 19.0096 790.454 17.7424 790.454 16.216V13.5952C790.454 12.0976 790.195 10.8304 789.677 9.8224C789.158 8.8432 788.438 8.0944 787.546 7.6048C786.653 7.1152 785.645 6.856 784.493 6.856C783.341 6.856 782.333 7.1152 781.44 7.6048C780.518 8.0944 779.827 8.8432 779.309 9.8224C778.79 10.8304 778.531 12.0976 778.531 13.5952V16.216C778.531 17.7424 778.79 19.0096 779.309 20.0176C779.827 21.0256 780.518 21.7744 781.44 22.264C782.333 22.7536 783.341 22.984 784.493 22.984ZM800.702 25V7.2016L793.906 7.2016V4.84L810.034 4.84V7.2016L803.237 7.2016V25H800.702ZM813.082 25V4.84L825.782 4.84V7.2016L815.616 7.2016V13.6528H824.918V16.0144H815.616V22.6384H826.128V25H813.082ZM836.414 25.3456C833.649 25.3456 831.518 24.5104 830.021 22.8112C828.523 21.112 827.803 18.7792 827.803 15.8128V13.9696C827.803 12.1552 828.149 10.5424 828.84 9.1024C829.531 7.6912 830.51 6.568 831.806 5.7328C833.073 4.9264 834.629 4.4944 836.414 4.4944C838.113 4.4944 839.525 4.8112 840.619 5.3872C841.713 5.992 842.549 6.7696 843.182 7.7488C843.816 8.728 844.248 9.7648 844.507 10.8592L842.261 11.6656C842.088 10.7728 841.771 9.9664 841.31 9.2464C840.849 8.5264 840.245 7.9504 839.438 7.5184C838.632 7.0864 837.624 6.856 836.385 6.856C835.061 6.856 833.966 7.1728 833.073 7.7488C832.152 8.3248 831.489 9.1312 831.029 10.168C830.568 11.2048 830.337 12.3568 830.337 13.6816V16.1008C830.337 18.3184 830.856 20.0176 831.921 21.1984C832.958 22.408 834.456 22.984 836.385 22.984C838.171 22.984 839.525 22.552 840.417 21.6592C841.281 20.7952 841.886 19.5856 842.232 18.0592L844.565 18.8656C844.104 20.824 843.182 22.408 841.857 23.5888C840.504 24.7696 838.689 25.3456 836.414 25.3456ZM847.788 25V4.84H850.322V13.3648H860.518V4.84H863.052V25H860.518V15.7264H850.322V25L847.788 25ZM867.082 25V4.84H870.509L880.445 20.7376V4.84H882.922V25H880.358L869.558 7.6624V25H867.082ZM894.771 25.3456C893.043 25.3456 891.545 24.9712 890.278 24.2224C889.011 23.4736 888.003 22.4368 887.312 21.0832C886.62 19.7296 886.275 18.1456 886.275 16.3312V13.48C886.275 11.6944 886.62 10.1104 887.312 8.7568C888.003 7.432 889.011 6.3664 890.278 5.6176C891.545 4.8688 893.043 4.4944 894.771 4.4944C896.47 4.4944 897.968 4.8688 899.235 5.6176C900.502 6.3664 901.51 7.432 902.201 8.7568C902.892 10.1104 903.267 11.6944 903.267 13.48V16.3312C903.267 18.1456 902.892 19.7296 902.201 21.0832C901.51 22.4368 900.502 23.4736 899.235 24.2224C897.968 24.9712 896.47 25.3456 894.771 25.3456ZM894.771 22.984C895.923 22.984 896.931 22.7536 897.824 22.264C898.716 21.7744 899.436 21.0256 899.955 20.0176C900.473 19.0096 900.732 17.7424 900.732 16.216V13.5952C900.732 12.0976 900.473 10.8304 899.955 9.8224C899.436 8.8432 898.716 8.0944 897.824 7.6048C896.931 7.1152 895.923 6.856 894.771 6.856C893.619 6.856 892.611 7.1152 891.718 7.6048C890.796 8.0944 890.105 8.8432 889.587 9.8224C889.068 10.8304 888.809 12.0976 888.809 13.5952V16.216C888.809 17.7424 889.068 19.0096 889.587 20.0176C890.105 21.0256 890.796 21.7744 891.718 22.264C892.611 22.7536 893.619 22.984 894.771 22.984ZM906.597 25V4.84H909.132V22.6384L919.096 22.6384V25L906.597 25ZM928.69 25.3456C926.962 25.3456 925.464 24.9712 924.197 24.2224C922.93 23.4736 921.922 22.4368 921.23 21.0832C920.539 19.7296 920.194 18.1456 920.194 16.3312V13.48C920.194 11.6944 920.539 10.1104 921.23 8.7568C921.922 7.432 922.93 6.3664 924.197 5.6176C925.464 4.8688 926.962 4.4944 928.69 4.4944C930.389 4.4944 931.886 4.8688 933.154 5.6176C934.421 6.3664 935.429 7.432 936.12 8.7568C936.811 10.1104 937.186 11.6944 937.186 13.48V16.3312C937.186 18.1456 936.811 19.7296 936.12 21.0832C935.429 22.4368 934.421 23.4736 933.154 24.2224C931.886 24.9712 930.389 25.3456 928.69 25.3456ZM928.69 22.984C929.842 22.984 930.85 22.7536 931.742 22.264C932.635 21.7744 933.355 21.0256 933.874 20.0176C934.392 19.0096 934.651 17.7424 934.651 16.216V13.5952V13.5664V13.3648H931.454C930.13 13.3648 929.035 13.048 928.2 12.3568C927.365 11.6944 926.962 10.8304 926.962 9.7936C926.962 9.0448 927.134 8.44 927.509 7.9216C927.854 7.432 928.286 7.0864 928.805 6.856H928.69C927.538 6.856 926.53 7.1152 925.637 7.6048C924.715 8.0944 924.024 8.8432 923.506 9.8224C922.987 10.8304 922.728 12.0976 922.728 13.5952V16.216C922.728 17.7424 922.987 19.0096 923.506 20.0176C924.024 21.0256 924.715 21.7744 925.637 22.264C926.53 22.7536 927.538 22.984 928.69 22.984ZM931.512 11.0032H934.306C933.874 9.5056 933.067 8.3824 931.915 7.6624C931.454 7.432 930.994 7.3168 930.533 7.3744C930.072 7.432 929.698 7.6336 929.41 7.9504C929.122 8.296 928.978 8.6992 928.978 9.2176C928.978 9.7072 929.179 10.1392 929.611 10.4848C930.043 10.8304 930.677 11.0032 931.512 11.0032ZM948.35 25.3456C946.564 25.3456 945.009 24.9424 943.742 24.1072C942.474 23.3008 941.495 22.1488 940.833 20.7088C940.142 19.2688 939.825 17.6272 939.825 15.784V14.056C939.825 12.2128 940.17 10.5712 940.862 9.1312C941.553 7.6912 942.532 6.568 943.828 5.7328C945.124 4.9264 946.679 4.4944 948.522 4.4944C950.25 4.4944 951.633 4.8112 952.727 5.3872C953.822 5.9632 954.657 6.712 955.233 7.6336C955.809 8.5552 956.183 9.4768 956.385 10.4272L954.167 11.2624C953.994 10.4848 953.678 9.7648 953.246 9.1024C952.785 8.44 952.18 7.8928 951.431 7.4896C950.654 7.0864 949.646 6.856 948.436 6.856C946.449 6.856 944.951 7.5184 943.914 8.7856C942.878 10.0528 942.359 11.7232 942.359 13.768V16.072C942.359 18.1456 942.878 19.816 943.914 21.0832C944.951 22.3504 946.478 22.984 948.522 22.984C949.905 22.984 950.999 22.7248 951.863 22.1488C952.727 21.5728 953.361 20.8528 953.764 19.9888C954.167 19.1248 954.369 18.232 954.369 17.3392V16.9936H947.111V14.6896H956.788V25H954.426V21.6304C953.937 22.8112 953.217 23.7328 952.238 24.3664C951.258 25.0288 949.962 25.3456 948.35 25.3456ZM965.466 25V17.5984L957.776 4.84H960.685L966.733 15.2944L972.781 4.84L975.69 4.84L968 17.5984V25H965.466ZM988.423 19.24C987.617 19.24 986.897 19.0672 986.234 18.664C985.572 18.2896 985.053 17.7712 984.679 17.1088C984.276 16.4464 984.103 15.7264 984.103 14.92C984.103 14.1136 984.276 13.3936 984.679 12.7312C985.053 12.0976 985.572 11.5792 986.234 11.176C986.897 10.8016 987.617 10.6 988.423 10.6C989.229 10.6 989.949 10.8016 990.612 11.176C991.245 11.5792 991.764 12.0976 992.167 12.7312C992.541 13.3936 992.743 14.1136 992.743 14.92C992.743 15.7264 992.541 16.4464 992.167 17.1088C991.764 17.7712 991.245 18.2896 990.612 18.664C989.949 19.0672 989.229 19.24 988.423 19.24ZM1008.52 25L1001.17 4.84H1003.91L1010.1 22.6096L1016.29 4.84H1019.03L1011.69 25H1008.52ZM1021.54 25V4.84L1034.24 4.84V7.2016L1024.08 7.2016V13.6528L1033.38 13.6528V16.0144L1024.08 16.0144V22.6384L1034.59 22.6384V25L1021.54 25ZM1038.11 25V4.84H1041.54L1051.47 20.7376V4.84L1053.95 4.84V25H1051.39L1040.59 7.6624V25H1038.11ZM1063.81 25V7.2016H1057.01V4.84L1073.14 4.84V7.2016H1066.35V25H1063.81ZM1076.13 17.6848V4.84H1078.67V18.0592C1078.67 19.6432 1079.07 20.7952 1079.88 21.544C1080.68 22.2928 1081.66 22.6384 1082.84 22.6384H1084.28C1085.49 22.6384 1086.5 22.264 1087.28 21.5152C1088.06 20.7664 1088.46 19.5568 1088.46 17.8864V4.84H1090.99V20.7664C1090.99 21.4 1091.17 21.8608 1091.54 22.2064C1091.89 22.552 1092.41 22.696 1093.04 22.696H1094.28V25H1092.66C1091.74 25 1090.91 24.7696 1090.16 24.2512C1089.41 23.7328 1088.95 23.0128 1088.81 22.0624C1088.52 23.0128 1087.97 23.7328 1087.19 24.2512C1086.42 24.7696 1085.49 25 1084.43 25H1082.7C1080.6 25 1078.98 24.3952 1077.83 23.128C1076.68 21.8608 1076.13 20.0464 1076.13 17.6848ZM1097.09 25V4.84L1104.89 4.84C1106.19 4.84 1107.34 5.0416 1108.38 5.4448C1109.39 5.848 1110.19 6.4816 1110.77 7.288C1111.34 8.0944 1111.66 9.16 1111.66 10.4272V10.7728C1111.66 11.752 1111.46 12.5872 1111.08 13.2496C1110.68 13.912 1110.22 14.4304 1109.64 14.8048C1109.07 15.208 1108.49 15.4384 1107.92 15.5536C1108.98 15.6976 1109.82 16.1296 1110.39 16.8496C1110.97 17.5696 1111.29 18.5776 1111.29 19.8736V25H1108.75V20.3632C1108.75 19.2112 1108.44 18.3472 1107.86 17.7136C1107.28 17.08 1106.42 16.7632 1105.27 16.7632H1099.62V25H1097.09ZM1099.62 14.4016H1105.04C1106.3 14.4016 1107.31 14.1424 1108.03 13.5664C1108.75 13.0192 1109.13 12.1552 1109.13 10.9456V10.6576C1109.13 9.448 1108.75 8.584 1108.03 8.0368C1107.31 7.4896 1106.3 7.2016 1105.04 7.2016H1099.62V14.4016ZM1115.2 25V4.84L1127.9 4.84V7.2016L1117.73 7.2016V13.6528H1127.04V16.0144H1117.73V22.6384H1128.25V25H1115.2ZM1137.98 25V4.84L1144.66 4.84C1147.34 4.84 1149.44 5.56 1150.94 6.9712C1152.44 8.3824 1153.19 10.5424 1153.19 13.4224V16.4176C1153.19 19.3264 1152.44 21.4864 1150.94 22.8976C1149.44 24.3088 1147.34 25 1144.66 25H1137.98ZM1140.52 22.6384H1144.66C1145.9 22.6384 1146.97 22.4368 1147.86 22.0336C1148.75 21.6304 1149.44 20.968 1149.93 20.0464C1150.39 19.1248 1150.65 17.8576 1150.65 16.2736V13.5664C1150.65 12.0112 1150.39 10.744 1149.93 9.8224C1149.44 8.9008 1148.75 8.2096 1147.86 7.8064C1146.97 7.4032 1145.9 7.2016 1144.66 7.2016L1140.52 7.2016V22.6384ZM1156.52 25V4.84L1169.22 4.84V7.2016L1159.05 7.2016V13.6528H1168.35V16.0144H1159.05V22.6384H1169.56V25L1156.52 25ZM1178.9 25L1171.56 4.84H1174.29L1180.48 22.6096L1186.68 4.84H1189.41L1182.07 25L1178.9 25ZM1191.93 25V4.84L1204.63 4.84V7.2016L1194.46 7.2016V13.6528L1203.76 13.6528V16.0144L1194.46 16.0144V22.6384L1204.97 22.6384V25L1191.93 25ZM1208.49 25V4.84H1211.03V22.6384H1220.99V25H1208.49ZM1230.58 25.3456C1228.86 25.3456 1227.36 24.9712 1226.09 24.2224C1224.82 23.4736 1223.82 22.4368 1223.12 21.0832C1222.43 19.7296 1222.09 18.1456 1222.09 16.3312V13.48C1222.09 11.6944 1222.43 10.1104 1223.12 8.7568C1223.82 7.432 1224.82 6.3664 1226.09 5.6176C1227.36 4.8688 1228.86 4.4944 1230.58 4.4944C1232.28 4.4944 1233.78 4.8688 1235.05 5.6176C1236.31 6.3664 1237.32 7.432 1238.01 8.7568C1238.7 10.1104 1239.08 11.6944 1239.08 13.48V16.3312C1239.08 18.1456 1238.7 19.7296 1238.01 21.0832C1237.32 22.4368 1236.31 23.4736 1235.05 24.2224C1233.78 24.9712 1232.28 25.3456 1230.58 25.3456ZM1230.58 22.984C1231.74 22.984 1232.74 22.7536 1233.64 22.264C1234.53 21.7744 1235.25 21.0256 1235.77 20.0176C1236.29 19.0096 1236.54 17.7424 1236.54 16.216V13.5952C1236.54 12.0976 1236.29 10.8304 1235.77 9.8224C1235.25 8.8432 1234.53 8.0944 1233.64 7.6048C1232.74 7.1152 1231.74 6.856 1230.58 6.856C1229.43 6.856 1228.42 7.1152 1227.53 7.6048C1226.61 8.0944 1225.92 8.8432 1225.4 9.8224C1224.88 10.8304 1224.62 12.0976 1224.62 13.5952V16.216C1224.62 17.7424 1224.88 19.0096 1225.4 20.0176C1225.92 21.0256 1226.61 21.7744 1227.53 22.264C1228.42 22.7536 1229.43 22.984 1230.58 22.984ZM1242.41 25V4.84H1250.27C1252.35 4.84 1254.02 5.3296 1255.28 6.28C1256.55 7.2304 1257.21 8.728 1257.21 10.7728V11.1184C1257.21 13.192 1256.55 14.6896 1255.28 15.64C1254.02 16.5904 1252.35 17.0512 1250.27 17.0512L1244.94 17.0512V25H1242.41ZM1244.94 14.6896L1250.44 14.6896C1251.8 14.6896 1252.84 14.4304 1253.58 13.8544C1254.3 13.2784 1254.68 12.3568 1254.68 11.0896V10.8016C1254.68 9.5632 1254.3 8.6416 1253.58 8.0656C1252.84 7.4896 1251.8 7.2016 1250.44 7.2016H1244.94V14.6896ZM1269.47 25.3456C1268.61 25.3456 1267.86 25.1152 1267.23 24.6544C1266.59 24.1936 1266.19 23.56 1266.02 22.7248C1265.85 21.9184 1265.99 20.9392 1266.51 19.816L1268.15 16.2448L1264.06 7.3744L1261.01 25H1258.36L1262.1 4.84L1265.56 4.84L1269.47 13.4512L1273.39 4.84L1276.85 4.84L1280.59 25H1277.94L1274.89 7.3744L1270.8 16.2448L1272.44 19.816C1272.96 20.9392 1273.1 21.9184 1272.93 22.7248C1272.76 23.56 1272.35 24.1936 1271.72 24.6544C1271.09 25.1152 1270.34 25.3456 1269.47 25.3456ZM1269.47 23.1568C1270.02 23.1568 1270.4 22.9552 1270.57 22.4944C1270.74 22.0624 1270.71 21.6016 1270.51 21.112L1269.47 18.7216L1268.44 21.112C1268.24 21.6016 1268.24 22.0624 1268.41 22.4944C1268.58 22.9552 1268.93 23.1568 1269.47 23.1568ZM1283.47 25V4.84L1296.17 4.84V7.2016L1286.01 7.2016V13.6528L1295.31 13.6528V16.0144L1286.01 16.0144V22.6384L1296.52 22.6384V25L1283.47 25ZM1300.04 25V4.84H1303.47L1313.4 20.7376V4.84H1315.88V25H1313.31L1302.51 7.6624V25H1300.04ZM1325.74 25V7.2016H1318.94V4.84L1335.07 4.84V7.2016L1328.27 7.2016V25H1325.74ZM1344.33 25V4.84L1352.2 4.84C1354.27 4.84 1355.94 5.3296 1357.21 6.28C1358.48 7.2304 1359.14 8.728 1359.14 10.7728V11.1184C1359.14 13.192 1358.48 14.6896 1357.21 15.64C1355.94 16.5904 1354.27 17.0512 1352.2 17.0512H1346.87V25H1344.33ZM1346.87 14.6896H1352.37C1353.72 14.6896 1354.76 14.4304 1355.51 13.8544C1356.23 13.2784 1356.6 12.3568 1356.6 11.0896V10.8016C1356.6 9.5632 1356.23 8.6416 1355.51 8.0656C1354.76 7.4896 1353.72 7.2016 1352.37 7.2016L1346.87 7.2016V14.6896ZM1362.36 25V4.84H1364.9V13.3936C1365.1 12.616 1365.56 12.0112 1366.25 11.5504C1366.94 11.1184 1367.81 10.888 1368.79 10.888C1369.97 10.888 1370.97 11.1184 1371.84 11.5792C1372.7 12.04 1373.39 12.616 1373.97 13.3072C1374.55 13.9984 1374.98 14.6896 1375.32 15.3808V4.84H1377.86V25H1375.32V22.984C1375.32 21.0832 1375.01 19.3552 1374.4 17.8H1368.9C1367.81 17.8 1366.94 17.5696 1366.25 17.1088C1365.56 16.648 1365.1 16.0144 1364.9 15.2368V25H1362.36ZM1368.79 15.4384H1373.11C1372.53 14.7184 1371.9 14.1424 1371.15 13.7104C1370.4 13.3072 1369.62 13.0768 1368.76 13.0768C1368.21 13.0768 1367.81 13.192 1367.55 13.4224C1367.26 13.6528 1367.14 13.9408 1367.14 14.2576C1367.14 14.632 1367.29 14.92 1367.58 15.1216C1367.86 15.352 1368.27 15.4384 1368.79 15.4384ZM1380.5 25L1388.1 4.84H1391.44L1399.05 25H1396.28L1394.52 20.1616H1385.02L1383.26 25H1380.5ZM1389.77 7.0576L1385.86 17.8576H1393.69L1389.77 7.0576ZM1401.71 25V4.84L1409.51 4.84C1410.81 4.84 1411.96 5.0416 1413 5.4448C1414.01 5.848 1414.81 6.4816 1415.39 7.288C1415.97 8.0944 1416.28 9.16 1416.28 10.4272V10.7728C1416.28 11.752 1416.08 12.5872 1415.71 13.2496C1415.3 13.912 1414.84 14.4304 1414.27 14.8048C1413.69 15.208 1413.11 15.4384 1412.54 15.5536C1413.6 15.6976 1414.44 16.1296 1415.02 16.8496C1415.59 17.5696 1415.91 18.5776 1415.91 19.8736V25H1413.37V20.3632C1413.37 19.2112 1413.06 18.3472 1412.48 17.7136C1411.91 17.08 1411.04 16.7632 1409.89 16.7632H1404.24V25H1401.71ZM1404.24 14.4016H1409.66C1410.93 14.4016 1411.93 14.1424 1412.65 13.5664C1413.37 13.0192 1413.75 12.1552 1413.75 10.9456V10.6576C1413.75 9.448 1413.37 8.584 1412.65 8.0368C1411.93 7.4896 1410.93 7.2016 1409.66 7.2016L1404.24 7.2016V14.4016ZM1419.82 25V4.84H1423.85L1429.79 22.5232L1435.72 4.84L1439.75 4.84V25H1437.28V7.6048L1431.23 25H1428.35L1422.3 7.6048V25H1419.82ZM1442.4 25L1450.01 4.84L1453.35 4.84L1460.95 25H1458.18L1456.43 20.1616H1446.92L1445.17 25L1442.4 25ZM1451.68 7.0576L1447.76 17.8576H1455.59L1451.68 7.0576ZM1470.21 25.3456C1467.45 25.3456 1465.32 24.5104 1463.82 22.8112C1462.32 21.112 1461.6 18.7792 1461.6 15.8128V13.9696C1461.6 12.1552 1461.95 10.5424 1462.64 9.1024C1463.33 7.6912 1464.31 6.568 1465.6 5.7328C1466.87 4.9264 1468.43 4.4944 1470.21 4.4944C1471.91 4.4944 1473.32 4.8112 1474.42 5.3872C1475.51 5.992 1476.35 6.7696 1476.98 7.7488C1477.61 8.728 1478.04 9.7648 1478.3 10.8592L1476.06 11.6656C1475.88 10.7728 1475.57 9.9664 1475.11 9.2464C1474.65 8.5264 1474.04 7.9504 1473.24 7.5184C1472.43 7.0864 1471.42 6.856 1470.18 6.856C1468.86 6.856 1467.76 7.1728 1466.87 7.7488C1465.95 8.3248 1465.29 9.1312 1464.83 10.168C1464.36 11.2048 1464.13 12.3568 1464.13 13.6816V16.1008C1464.13 18.3184 1464.65 20.0176 1465.72 21.1984C1466.76 22.408 1468.25 22.984 1470.18 22.984C1471.97 22.984 1473.32 22.552 1474.21 21.6592C1475.08 20.7952 1475.68 19.5856 1476.03 18.0592L1478.36 18.8656C1477.9 20.824 1476.98 22.408 1475.65 23.5888C1474.3 24.7696 1472.49 25.3456 1470.21 25.3456ZM1486.57 25V17.5984L1478.88 4.84H1481.79L1487.83 15.2944L1493.88 4.84L1496.79 4.84L1489.1 17.5984V25H1486.57ZM1509.52 19.24C1508.72 19.24 1508 19.0672 1507.33 18.664C1506.67 18.2896 1506.15 17.7712 1505.78 17.1088C1505.38 16.4464 1505.2 15.7264 1505.2 14.92C1505.2 14.1136 1505.38 13.3936 1505.78 12.7312C1506.15 12.0976 1506.67 11.5792 1507.33 11.176C1508 10.8016 1508.72 10.6 1509.52 10.6C1510.33 10.6 1511.05 10.8016 1511.71 11.176C1512.35 11.5792 1512.86 12.0976 1513.27 12.7312C1513.64 13.3936 1513.84 14.1136 1513.84 14.92C1513.84 15.7264 1513.64 16.4464 1513.27 17.1088C1512.86 17.7712 1512.35 18.2896 1511.71 18.664C1511.05 19.0672 1510.33 19.24 1509.52 19.24ZM1523.8 25V4.84L1530.48 4.84C1533.16 4.84 1535.26 5.56 1536.76 6.9712C1538.26 8.3824 1539.01 10.5424 1539.01 13.4224V16.4176C1539.01 19.3264 1538.26 21.4864 1536.76 22.8976C1535.26 24.3088 1533.16 25 1530.48 25H1523.8ZM1526.33 22.6384H1530.48C1531.72 22.6384 1532.79 22.4368 1533.68 22.0336C1534.57 21.6304 1535.26 20.968 1535.75 20.0464C1536.21 19.1248 1536.47 17.8576 1536.47 16.2736V13.5664C1536.47 12.0112 1536.21 10.744 1535.75 9.8224C1535.26 8.9008 1534.57 8.2096 1533.68 7.8064C1532.79 7.4032 1531.72 7.2016 1530.48 7.2016L1526.33 7.2016V22.6384ZM1542.33 25V4.84L1555.04 4.84V7.2016L1544.87 7.2016V13.6528H1554.17V16.0144H1544.87V22.6384H1555.38V25H1542.33ZM1558.9 25V4.84L1561.38 4.84C1562.41 4.84 1563.31 5.0416 1564.03 5.4448C1564.75 5.848 1565.32 6.3952 1565.78 7.0864C1566.24 7.7776 1566.59 8.5552 1566.88 9.448C1567.17 10.3408 1567.4 11.2624 1567.57 12.2416L1568.4 17.0512C1568.58 18.0592 1568.78 18.9808 1569.04 19.8448C1569.3 20.7088 1569.67 21.3712 1570.13 21.8896C1570.59 22.408 1571.23 22.6384 1572.03 22.6384H1572.26V4.84H1574.74V25H1572.26C1570.88 25 1569.76 24.6832 1568.95 24.0496C1568.15 23.416 1567.51 22.5808 1567.11 21.544C1566.68 20.5072 1566.36 19.4128 1566.16 18.2032L1565.21 12.8752C1564.89 11.1472 1564.46 9.7936 1563.94 8.7568C1563.39 7.72 1562.62 7.2016 1561.61 7.2016H1561.38V25H1558.9ZM1584.6 25V7.2016L1577.81 7.2016V4.84L1593.93 4.84V7.2016H1587.14V25H1584.6ZM1591.58 25L1599.18 4.84H1602.52L1610.12 25H1607.36L1605.6 20.1616L1596.1 20.1616L1594.34 25H1591.58ZM1600.85 7.0576L1596.93 17.8576L1604.77 17.8576L1600.85 7.0576ZM1612.79 25V4.84H1615.32V22.6384L1625.29 22.6384V25L1612.79 25ZM1639.09 19.24C1638.29 19.24 1637.57 19.0672 1636.91 18.664C1636.24 18.2896 1635.73 17.7712 1635.35 17.1088C1634.95 16.4464 1634.77 15.7264 1634.77 14.92C1634.77 14.1136 1634.95 13.3936 1635.35 12.7312C1635.73 12.0976 1636.24 11.5792 1636.91 11.176C1637.57 10.8016 1638.29 10.6 1639.09 10.6C1639.9 10.6 1640.62 10.8016 1641.28 11.176C1641.92 11.5792 1642.44 12.0976 1642.84 12.7312C1643.21 13.3936 1643.41 14.1136 1643.41 14.92C1643.41 15.7264 1643.21 16.4464 1642.84 17.1088C1642.44 17.7712 1641.92 18.2896 1641.28 18.664C1640.62 19.0672 1639.9 19.24 1639.09 19.24ZM1653.37 25V4.84H1657.4L1663.34 22.5232L1669.27 4.84L1673.3 4.84V25H1670.83V7.6048L1664.78 25H1661.9L1655.85 7.6048V25H1653.37ZM1677.33 25V4.84L1684.79 4.84C1686.67 4.84 1688.13 5.3296 1689.17 6.2512C1690.21 7.1728 1690.76 8.44 1690.76 10.024V10.2544C1690.76 11.32 1690.5 12.184 1690.04 12.8464C1689.55 13.5088 1688.97 14.0272 1688.28 14.4016C1689.26 14.6896 1690.12 15.208 1690.81 16.0144C1691.5 16.8208 1691.85 17.944 1691.85 19.384V19.6432C1691.85 20.7376 1691.56 21.688 1691.04 22.4944C1690.5 23.3008 1689.78 23.9056 1688.88 24.3376C1687.99 24.7984 1686.98 25 1685.89 25H1677.33ZM1679.87 13.624H1684.74C1685.89 13.624 1686.75 13.3648 1687.39 12.8176C1687.99 12.2992 1688.31 11.5504 1688.31 10.5712V10.2256C1688.31 9.2752 1687.99 8.5264 1687.39 8.008C1686.75 7.4896 1685.89 7.2016 1684.74 7.2016L1679.87 7.2016V13.624ZM1679.87 22.6384H1685.66C1686.87 22.6384 1687.82 22.3792 1688.45 21.8032C1689.09 21.256 1689.43 20.4496 1689.43 19.4128V19.1824C1689.43 18.1744 1689.11 17.368 1688.48 16.792C1687.85 16.216 1686.93 15.928 1685.69 15.928H1679.87V22.6384ZM1695.08 25V4.84H1702.54C1704.41 4.84 1705.88 5.3296 1706.92 6.2512C1707.96 7.1728 1708.5 8.44 1708.5 10.024V10.2544C1708.5 11.32 1708.24 12.184 1707.78 12.8464C1707.29 13.5088 1706.72 14.0272 1706.03 14.4016C1707 14.6896 1707.87 15.208 1708.56 16.0144C1709.25 16.8208 1709.6 17.944 1709.6 19.384V19.6432C1709.6 20.7376 1709.31 21.688 1708.79 22.4944C1708.24 23.3008 1707.52 23.9056 1706.63 24.3376C1705.74 24.7984 1704.73 25 1703.64 25H1695.08ZM1697.62 13.624H1702.48C1703.64 13.624 1704.5 13.3648 1705.13 12.8176C1705.74 12.2992 1706.05 11.5504 1706.05 10.5712V10.2256C1706.05 9.2752 1705.74 8.5264 1705.13 8.008C1704.5 7.4896 1703.64 7.2016 1702.48 7.2016H1697.62V13.624ZM1697.62 22.6384H1703.4C1704.61 22.6384 1705.56 22.3792 1706.2 21.8032C1706.83 21.256 1707.18 20.4496 1707.18 19.4128V19.1824C1707.18 18.1744 1706.86 17.368 1706.23 16.792C1705.59 16.216 1704.67 15.928 1703.43 15.928H1697.62V22.6384ZM1719.29 25.3456C1717.68 25.3456 1716.33 25.0576 1715.23 24.4816C1714.14 23.9056 1713.3 23.0992 1712.7 22.0912C1712.06 21.112 1711.66 19.96 1711.49 18.6928L1713.91 17.944C1714.14 19.528 1714.66 20.7664 1715.52 21.6592C1716.38 22.552 1717.65 22.984 1719.32 22.984H1720.3C1721.62 22.984 1722.69 22.6672 1723.47 22.0048C1724.25 21.3712 1724.65 20.4784 1724.65 19.3552C1724.65 18.2896 1724.25 17.4832 1723.44 16.9072C1722.63 16.36 1721.45 15.9856 1719.9 15.7552L1718.2 15.5248C1717.19 15.4096 1716.27 15.0928 1715.46 14.632C1714.66 14.1712 1713.99 13.5376 1713.53 12.76C1713.07 12.0112 1712.84 11.1184 1712.84 10.0816C1712.84 8.3824 1713.39 7.0288 1714.51 6.0208C1715.63 5.0128 1717.19 4.4944 1719.18 4.4944C1720.33 4.4944 1721.31 4.696 1722.11 5.0992C1722.92 5.5024 1723.53 6.0208 1723.93 6.6256C1724.33 7.2304 1724.56 7.8064 1724.56 8.3824C1724.56 8.9584 1724.45 9.4768 1724.22 9.9952C1723.99 10.5136 1723.61 10.9456 1723.04 11.2624C1722.46 11.5792 1721.68 11.7232 1720.65 11.7232H1719.7C1718.43 11.7232 1717.45 11.4352 1716.82 10.8304C1716.15 10.2256 1715.78 9.4768 1715.66 8.584C1715.46 8.9872 1715.38 9.448 1715.38 9.9952C1715.38 10.9744 1715.69 11.7232 1716.33 12.2128C1716.96 12.7312 1717.77 13.048 1718.77 13.192L1720.79 13.48C1722.06 13.6528 1723.18 13.9696 1724.16 14.4304C1725.11 14.8912 1725.86 15.496 1726.38 16.2736C1726.9 17.08 1727.18 18.088 1727.18 19.2976C1727.18 20.6224 1726.87 21.7456 1726.23 22.6384C1725.6 23.56 1724.74 24.2224 1723.7 24.6832C1722.66 25.144 1721.51 25.3456 1720.27 25.3456H1719.29ZM1719.41 9.6208H1720.36C1721.45 9.6208 1722.03 9.2176 1722.03 8.3536C1722.03 7.9216 1721.8 7.576 1721.34 7.288C1720.88 7 1720.18 6.856 1719.26 6.856C1718.66 6.856 1718.17 6.9712 1717.77 7.2016C1717.36 7.432 1717.19 7.7776 1717.19 8.2384C1717.19 8.584 1717.36 8.9008 1717.77 9.1888C1718.14 9.4768 1718.69 9.6208 1719.41 9.6208ZM1740.79 19.24C1739.99 19.24 1739.27 19.0672 1738.61 18.664C1737.94 18.2896 1737.43 17.7712 1737.05 17.1088C1736.65 16.4464 1736.47 15.7264 1736.47 14.92C1736.47 14.1136 1736.65 13.3936 1737.05 12.7312C1737.43 12.0976 1737.94 11.5792 1738.61 11.176C1739.27 10.8016 1739.99 10.6 1740.79 10.6C1741.6 10.6 1742.32 10.8016 1742.98 11.176C1743.62 11.5792 1744.14 12.0976 1744.54 12.7312C1744.91 13.3936 1745.11 14.1136 1745.11 14.92C1745.11 15.7264 1744.91 16.4464 1744.54 17.1088C1744.14 17.7712 1743.62 18.2896 1742.98 18.664C1742.32 19.0672 1741.6 19.24 1740.79 19.24ZM1753.69 25L1761.29 4.84H1764.63L1772.24 25H1769.47L1767.72 20.1616H1758.21L1756.45 25L1753.69 25ZM1762.96 7.0576L1759.05 17.8576H1766.88L1762.96 7.0576ZM1774.9 25V4.84L1782.71 4.84C1784 4.84 1785.15 5.0416 1786.19 5.4448C1787.2 5.848 1788 6.4816 1788.58 7.288C1789.16 8.0944 1789.47 9.16 1789.47 10.4272V10.7728C1789.47 11.752 1789.27 12.5872 1788.9 13.2496C1788.49 13.912 1788.03 14.4304 1787.46 14.8048C1786.88 15.208 1786.31 15.4384 1785.73 15.5536C1786.79 15.6976 1787.63 16.1296 1788.21 16.8496C1788.78 17.5696 1789.1 18.5776 1789.1 19.8736V25H1786.56V20.3632C1786.56 19.2112 1786.25 18.3472 1785.67 17.7136C1785.1 17.08 1784.23 16.7632 1783.08 16.7632H1777.43V25L1774.9 25ZM1777.43 14.4016H1782.85C1784.12 14.4016 1785.12 14.1424 1785.84 13.5664C1786.56 13.0192 1786.94 12.1552 1786.94 10.9456V10.6576C1786.94 9.448 1786.56 8.584 1785.84 8.0368C1785.12 7.4896 1784.12 7.2016 1782.85 7.2016L1777.43 7.2016V14.4016ZM1798.24 25V7.2016L1791.27 7.2016V4.84L1798.24 4.84C1798.27 3.3424 1798.79 2.1904 1799.77 1.3552C1800.75 0.548798 1802.07 0.116798 1803.77 0.116798C1805.3 0.116798 1806.45 0.491199 1807.23 1.1824C1807.98 1.8736 1808.38 2.7088 1808.38 3.688C1808.38 4.7248 1807.98 5.5888 1807.23 6.2224C1806.45 6.8848 1805.3 7.2016 1803.77 7.2016H1800.78V25L1798.24 25ZM1803.74 2.4208C1803 2.4208 1802.33 2.6224 1801.7 3.0256C1801.07 3.4288 1800.78 4.0336 1800.78 4.84H1803.74C1805.18 4.84 1805.9 4.4656 1805.9 3.688C1805.9 3.2848 1805.7 2.9968 1805.33 2.7664C1804.93 2.536 1804.41 2.4208 1803.74 2.4208ZM1810.38 25V22.6384H1814.35V7.2016H1810.38V4.84L1820.86 4.84V7.2016H1816.89V22.6384L1820.86 22.6384V25L1810.38 25ZM1824.26 25V4.84L1836.73 4.84V7.2016H1826.79V13.9984H1835.98V16.36H1826.79V25H1824.26ZM1839.6 25V22.6384L1843.58 22.6384V7.2016H1839.6V4.84L1850.08 4.84V7.2016L1846.11 7.2016V22.6384H1850.08V25L1839.6 25ZM1860.95 25.3456C1858.19 25.3456 1856.06 24.5104 1854.56 22.8112C1853.06 21.112 1852.34 18.7792 1852.34 15.8128V13.9696C1852.34 12.1552 1852.69 10.5424 1853.38 9.1024C1854.07 7.6912 1855.05 6.568 1856.34 5.7328C1857.61 4.9264 1859.17 4.4944 1860.95 4.4944C1862.65 4.4944 1864.06 4.8112 1865.16 5.3872C1866.25 5.992 1867.09 6.7696 1867.72 7.7488C1868.35 8.728 1868.79 9.7648 1869.04 10.8592L1866.8 11.6656C1866.63 10.7728 1866.31 9.9664 1865.85 9.2464C1865.39 8.5264 1864.78 7.9504 1863.98 7.5184C1863.17 7.0864 1862.16 6.856 1860.92 6.856C1859.6 6.856 1858.5 7.1728 1857.61 7.7488C1856.69 8.3248 1856.03 9.1312 1855.57 10.168C1855.11 11.2048 1854.87 12.3568 1854.87 13.6816V16.1008C1854.87 18.3184 1855.39 20.0176 1856.46 21.1984C1857.5 22.408 1858.99 22.984 1860.92 22.984C1862.71 22.984 1864.06 22.552 1864.95 21.6592C1865.82 20.7952 1866.42 19.5856 1866.77 18.0592L1869.1 18.8656C1868.64 20.824 1867.72 22.408 1866.39 23.5888C1865.04 24.7696 1863.23 25.3456 1860.95 25.3456ZM1871.35 25V22.6384H1875.33V7.2016H1871.35V4.84L1881.84 4.84V7.2016L1877.86 7.2016V22.6384H1881.84V25H1871.35ZM1883.85 25L1891.46 4.84L1894.8 4.84L1902.4 25H1899.63L1897.88 20.1616H1888.37L1886.62 25H1883.85ZM1893.13 7.0576L1889.21 17.8576H1897.04L1893.13 7.0576ZM1905.06 25V4.84H1907.6V22.6384L1917.56 22.6384V25L1905.06 25ZM1926.7 25V22.6384H1930.68V7.2016H1926.7V4.84L1937.19 4.84V7.2016L1933.21 7.2016V22.6384H1937.19V25L1926.7 25ZM1940.58 25V4.84H1944.01L1953.95 20.7376V4.84H1956.42V25H1953.86L1943.06 7.6624V25H1940.58ZM1966.29 25V7.2016H1959.49V4.84L1975.62 4.84V7.2016L1968.82 7.2016V25H1966.29ZM1978.67 25V4.84L1991.37 4.84V7.2016H1981.2V13.6528H1990.5V16.0144H1981.2V22.6384H1991.71V25H1978.67ZM2001.6 22.5232C2001.25 23.4448 2000.76 24.1648 2000.07 24.6256C1999.38 25.1152 1998.57 25.3456 1997.68 25.3456C1996.61 25.3456 1995.72 25.0576 1995 24.424C1994.25 23.7904 1993.91 22.9552 1993.91 21.9184C1993.91 20.824 1994.25 19.9312 1994.97 19.2688C1995.69 18.6352 1996.61 18.2896 1997.74 18.2896C1998.31 18.2896 1998.89 18.376 1999.44 18.52V4.84H2001.97V19.816C2002.32 20.104 2002.66 20.392 2003.04 20.7376C2003.7 21.4 2004.33 21.9184 2004.91 22.2928C2005.48 22.696 2006.09 22.8688 2006.72 22.8688C2007.24 22.8688 2007.7 22.7824 2008.08 22.552C2008.45 22.3216 2008.83 22.0048 2009.17 21.544L2010.75 23.272C2010.24 23.9056 2009.69 24.424 2009.06 24.7696C2008.42 25.1152 2007.62 25.288 2006.61 25.288C2005.63 25.288 2004.71 25.0288 2003.9 24.4528C2003.09 23.8768 2002.32 23.2432 2001.6 22.5232ZM1997.85 20.4208C1997.42 20.4208 1997.05 20.536 1996.73 20.7664C1996.41 20.9968 1996.27 21.3424 1996.27 21.7456C1996.27 22.1488 1996.38 22.4656 1996.64 22.7536C1996.87 23.0416 1997.22 23.1568 1997.65 23.1568C1998.23 23.1568 1998.66 22.984 1998.98 22.5808C1999.26 22.1776 1999.44 21.6592 1999.44 20.968V20.824C1998.92 20.5648 1998.4 20.4208 1997.85 20.4208ZM2013.12 25V4.84L2015.65 4.84V22.6384L2025.62 22.6384V25L2013.12 25ZM2028.54 25V22.6384H2032.52V7.2016H2028.54V4.84L2039.03 4.84V7.2016L2035.05 7.2016V22.6384H2039.03V25H2028.54ZM2049.81 25.3456C2048.02 25.3456 2046.47 24.9424 2045.2 24.1072C2043.93 23.3008 2042.95 22.1488 2042.29 20.7088C2041.6 19.2688 2041.28 17.6272 2041.28 15.784V14.056C2041.28 12.2128 2041.63 10.5712 2042.32 9.1312C2043.01 7.6912 2043.99 6.568 2045.29 5.7328C2046.58 4.9264 2048.14 4.4944 2049.98 4.4944C2051.71 4.4944 2053.09 4.8112 2054.19 5.3872C2055.28 5.9632 2056.12 6.712 2056.69 7.6336C2057.27 8.5552 2057.64 9.4768 2057.84 10.4272L2055.63 11.2624C2055.45 10.4848 2055.14 9.7648 2054.71 9.1024C2054.24 8.44 2053.64 7.8928 2052.89 7.4896C2052.11 7.0864 2051.11 6.856 2049.9 6.856C2047.91 6.856 2046.41 7.5184 2045.37 8.7856C2044.34 10.0528 2043.82 11.7232 2043.82 13.768V16.072C2043.82 18.1456 2044.34 19.816 2045.37 21.0832C2046.41 22.3504 2047.94 22.984 2049.98 22.984C2051.36 22.984 2052.46 22.7248 2053.32 22.1488C2054.19 21.5728 2054.82 20.8528 2055.22 19.9888C2055.63 19.1248 2055.83 18.232 2055.83 17.3392V16.9936H2048.57V14.6896H2058.25V25H2055.89V21.6304C2055.4 22.8112 2054.68 23.7328 2053.7 24.3664C2052.72 25.0288 2051.42 25.3456 2049.81 25.3456ZM2062.23 25V4.84L2074.93 4.84V7.2016L2064.76 7.2016V13.6528H2074.06V16.0144H2064.76V22.6384H2075.27V25L2062.23 25ZM2078.79 25V4.84L2082.22 4.84L2092.15 20.7376V4.84H2094.63V25H2092.07L2081.27 7.6624V25H2078.79ZM2106.6 25.3456C2103.83 25.3456 2101.7 24.5104 2100.2 22.8112C2098.7 21.112 2097.98 18.7792 2097.98 15.8128V13.9696C2097.98 12.1552 2098.33 10.5424 2099.02 9.1024C2099.71 7.6912 2100.69 6.568 2101.99 5.7328C2103.25 4.9264 2104.81 4.4944 2106.6 4.4944C2108.29 4.4944 2109.71 4.8112 2110.8 5.3872C2111.89 5.992 2112.73 6.7696 2113.36 7.7488C2114 8.728 2114.43 9.7648 2114.69 10.8592L2112.44 11.6656C2112.27 10.7728 2111.95 9.9664 2111.49 9.2464C2111.03 8.5264 2110.43 7.9504 2109.62 7.5184C2108.81 7.0864 2107.81 6.856 2106.57 6.856C2105.24 6.856 2104.15 7.1728 2103.25 7.7488C2102.33 8.3248 2101.67 9.1312 2101.21 10.168C2100.75 11.2048 2100.52 12.3568 2100.52 13.6816V16.1008C2100.52 18.3184 2101.04 20.0176 2102.1 21.1984C2103.14 22.408 2104.64 22.984 2106.57 22.984C2108.35 22.984 2109.71 22.552 2110.6 21.6592C2111.46 20.7952 2112.07 19.5856 2112.41 18.0592L2114.75 18.8656C2114.29 20.824 2113.36 22.408 2112.04 23.5888C2110.69 24.7696 2108.87 25.3456 2106.6 25.3456ZM2117.97 25V4.84L2130.67 4.84V7.2016L2120.5 7.2016V13.6528H2129.81V16.0144H2120.5V22.6384L2131.02 22.6384V25L2117.97 25Z" fill="white"/>
</svg>
